<svg xmlns="http://www.w3.org/2000/svg" width="600" height="500" viewBox="0 0 600 500">
  <defs>
    <linearGradient id="bg-gradient" x1="0%" y1="0%" x2="100%" y2="100%">
      <stop offset="0%" stop-color="#FFF0F5" />
      <stop offset="100%" stop-color="#F8E1F4" />
    </linearGradient>
    <linearGradient id="skin-gradient" x1="0%" y1="0%" x2="100%" y2="100%">
      <stop offset="0%" stop-color="#FFDBAC" />
      <stop offset="100%" stop-color="#F1C27D" />
    </linearGradient>
    <linearGradient id="dress-gradient" x1="0%" y1="0%" x2="100%" y2="100%">
      <stop offset="0%" stop-color="#FFC0CB" />
      <stop offset="100%" stop-color="#D8BFD8" />
    </linearGradient>
    <linearGradient id="hair-gradient" x1="0%" y1="0%" x2="100%" y2="100%">
      <stop offset="0%" stop-color="#4A2C2A" />
      <stop offset="100%" stop-color="#2D1A19" />
    </linearGradient>
    <linearGradient id="laptop-gradient" x1="0%" y1="0%" x2="100%" y2="100%">
      <stop offset="0%" stop-color="#E0E0E0" />
      <stop offset="100%" stop-color="#BBBBBB" />
    </linearGradient>
    <linearGradient id="screen-gradient" x1="0%" y1="0%" x2="100%" y2="100%">
      <stop offset="0%" stop-color="#2C3E50" />
      <stop offset="100%" stop-color="#1A252F" />
    </linearGradient>
  </defs>
  
  <!-- Background shape -->
  <ellipse cx="300" cy="380" rx="280" ry="100" fill="url(#bg-gradient)" opacity="0.6" />
  
  <!-- Laptop -->
  <g transform="translate(200, 250) rotate(-10)">
    <!-- Laptop base -->
    <rect x="-120" y="0" width="240" height="160" rx="10" ry="10" fill="url(#laptop-gradient)" />
    <!-- Laptop screen -->
    <rect x="-110" y="-150" width="220" height="145" rx="5" ry="5" fill="url(#screen-gradient)" />
    <rect x="-100" y="-140" width="200" height="125" fill="#FFFFFF" opacity="0.9" />
    <!-- Code on screen -->
    <g fill="#FFC0CB">
      <rect x="-90" y="-130" width="60" height="5" rx="2" ry="2" />
      <rect x="-90" y="-120" width="100" height="5" rx="2" ry="2" />
      <rect x="-90" y="-110" width="80" height="5" rx="2" ry="2" />
      <rect x="-90" y="-100" width="120" height="5" rx="2" ry="2" />
      <rect x="-90" y="-90" width="70" height="5" rx="2" ry="2" />
      <rect x="-90" y="-80" width="90" height="5" rx="2" ry="2" />
      <rect x="-90" y="-70" width="110" height="5" rx="2" ry="2" />
      <rect x="-90" y="-60" width="60" height="5" rx="2" ry="2" />
      <rect x="-90" y="-50" width="80" height="5" rx="2" ry="2" />
    </g>
    <!-- Laptop hinge -->
    <rect x="-30" y="-5" width="60" height="10" rx="5" ry="5" fill="#AAAAAA" />
  </g>
  
  <!-- Girl character -->
  <g transform="translate(350, 240)">
    <!-- Hair back -->
    <path d="M-40,-90 C-70,-70 -80,-20 -70,20 C-60,60 -30,80 0,90 C30,80 60,60 70,20 C80,-20 70,-70 40,-90 Z" fill="url(#hair-gradient)" />
    
    <!-- Neck -->
    <rect x="-15" y="-10" width="30" height="40" rx="10" ry="10" fill="url(#skin-gradient)" />
    
    <!-- Dress -->
    <path d="M-50,20 C-40,10 -20,0 0,0 C20,0 40,10 50,20 L60,150 L-60,150 Z" fill="url(#dress-gradient)" />
    
    <!-- Arms -->
    <path d="M-50,30 C-70,50 -90,90 -100,130" stroke="url(#skin-gradient)" stroke-width="20" stroke-linecap="round" fill="none" />
    <path d="M50,30 C70,50 90,90 100,130" stroke="url(#skin-gradient)" stroke-width="20" stroke-linecap="round" fill="none" />
    
    <!-- Face -->
    <circle cx="0" cy="-50" r="40" fill="url(#skin-gradient)" />
    
    <!-- Eyes -->
    <ellipse cx="-15" cy="-55" rx="5" ry="7" fill="#4A2C2A" />
    <ellipse cx="15" cy="-55" rx="5" ry="7" fill="#4A2C2A" />
    
    <!-- Eyebrows -->
    <path d="M-25,-65 C-20,-67 -10,-67 -5,-65" stroke="#4A2C2A" stroke-width="2" fill="none" />
    <path d="M5,-65 C10,-67 20,-67 25,-65" stroke="#4A2C2A" stroke-width="2" fill="none" />
    
    <!-- Smile -->
    <path d="M-15,-35 C-10,-30 10,-30 15,-35" stroke="#4A2C2A" stroke-width="2" fill="none" />
    
    <!-- Hair front -->
    <path d="M-40,-90 C-30,-95 30,-95 40,-90 L30,-70 C20,-75 -20,-75 -30,-70 Z" fill="url(#hair-gradient)" />
    <path d="M-40,-70 C-45,-60 -45,-50 -40,-40" stroke="url(#hair-gradient)" stroke-width="10" stroke-linecap="round" fill="none" />
    <path d="M40,-70 C45,-60 45,-50 40,-40" stroke="url(#hair-gradient)" stroke-width="10" stroke-linecap="round" fill="none" />
  </g>
  
  <!-- Decorative elements -->
  <circle cx="100" cy="100" r="20" fill="#FFC0CB" opacity="0.3" />
  <circle cx="500" cy="150" r="30" fill="#D8BFD8" opacity="0.3" />
  <circle cx="150" cy="400" r="25" fill="#FFC0CB" opacity="0.3" />
  <circle cx="450" cy="350" r="15" fill="#D8BFD8" opacity="0.3" />
</svg>